<svg xmlns="http://www.w3.org/2000/svg"  viewBox="0 0 100 100" width="512px" height="512px"><path d="M 29 17 C 22.384534 17 17 22.384534 17 29 L 17 71 C 17 77.615466 22.384534 83 29 83 L 71 83 C 77.615466 83 83 77.615466 83 71 L 83 29 C 83 22.384534 77.615466 17 71 17 L 29 17 z M 29 19 L 71 19 C 76.534534 19 81 23.465466 81 29 L 81 71 C 81 76.534534 76.534534 81 71 81 L 29 81 C 23.465466 81 19 76.534534 19 71 L 19 29 C 19 23.465466 23.465466 19 29 19 z M 29 22 C 25.144795 22 22 25.144795 22 29 L 22 71 C 22 74.855205 25.144795 78 29 78 L 71 78 C 74.855205 78 78 74.855205 78 71 L 78 49.5 A 0.50005 0.50005 0 1 0 77 49.5 L 77 71 C 77 74.312795 74.312795 77 71 77 L 29 77 C 25.687205 77 23 74.312795 23 71 L 23 29 C 23 25.687205 25.687205 23 29 23 L 67.5 23 A 0.50005 0.50005 0 1 0 67.5 22 L 29 22 z M 34 29 C 31.250484 29 29 31.250484 29 34 L 29 66 C 29 68.749516 31.250484 71 34 71 L 66 71 C 68.749516 71 71 68.749516 71 66 L 71 34 C 71 31.250484 68.749516 29 66 29 L 34 29 z M 34 31 L 66 31 C 67.668484 31 69 32.331516 69 34 L 69 66 C 69 67.668484 67.668484 69 66 69 L 34 69 C 32.331516 69 31 67.668484 31 66 L 31 34 C 31 32.331516 32.331516 31 34 31 z M 77.492188 36.992188 A 0.50005 0.50005 0 0 0 77 37.5 L 77 39.5 A 0.50005 0.50005 0 1 0 78 39.5 L 78 37.5 A 0.50005 0.50005 0 0 0 77.492188 36.992188 z M 44 41 C 42.35503 41 41 42.35503 41 44 L 41 56 C 41 57.64497 42.35503 59 44 59 L 56 59 C 57.64497 59 59 57.64497 59 56 L 59 44 C 59 42.35503 57.64497 41 56 41 L 44 41 z M 77.492188 41.992188 A 0.50005 0.50005 0 0 0 77 42.5 L 77 46.5 A 0.50005 0.50005 0 1 0 78 46.5 L 78 42.5 A 0.50005 0.50005 0 0 0 77.492188 41.992188 z M 44 43 L 56 43 C 56.56503 43 57 43.43497 57 44 L 57 56 C 57 56.56503 56.56503 57 56 57 L 44 57 C 43.43497 57 43 56.56503 43 56 L 43 44 C 43 43.43497 43.43497 43 44 43 z"/></svg>